<?xml version="1.0" encoding="UTF-8"?><svg id="Layer_1" xmlns="http://www.w3.org/2000/svg" viewBox="0 0 48 48"><path d="M44.494,22.881c-.943-.542-2.066-.538-3.006,.01l-5.488,3.202v10.815l5.488,3.202c.473,.276,.992,.414,1.512,.414,.513,0,1.026-.134,1.494-.403,.943-.542,1.506-1.514,1.506-2.601v-12.036c0-1.087-.563-2.06-1.506-2.601Z"/><path d="M30.602,21.287c2.06-1.551,3.398-4.01,3.398-6.787,0-4.694-3.806-8.5-8.5-8.5s-8.5,3.806-8.5,8.5c0,2.609,1.178,4.941,3.028,6.5h-5.441c1.48-1.37,2.413-3.324,2.413-5.5,0-4.142-3.358-7.5-7.5-7.5s-7.5,3.358-7.5,7.5c0,2.428,1.159,4.581,2.949,5.952-1.734,.786-2.949,2.524-2.949,4.548v11c0,2.757,2.243,5,5,5H29c2.757,0,5-2.243,5-5v-11c0-2.194-1.429-4.041-3.398-4.713ZM6.5,15.5c0-1.657,1.343-3,3-3s3,1.343,3,3-1.343,3-3,3-3-1.343-3-3Zm5.5,21.5h-4c-.552,0-1-.448-1-1s.448-1,1-1h4c.552,0,1,.448,1,1s-.448,1-1,1Zm13.5-18.5c-2.209,0-4-1.791-4-4s1.791-4,4-4,4,1.791,4,4-1.791,4-4,4Z"/></svg>