<?xml version="1.0" encoding="utf-8"?>
<!-- Generator: Adobe Illustrator 16.0.0, SVG Export Plug-In . SVG Version: 6.00 Build 0)  -->
<!DOCTYPE svg PUBLIC "-//W3C//DTD SVG 1.1//EN" "http://www.w3.org/Graphics/SVG/1.1/DTD/svg11.dtd">
<svg version="1.1" id="Calque_1" xmlns="http://www.w3.org/2000/svg" xmlns:xlink="http://www.w3.org/1999/xlink" x="0px" y="0px"
	 width="512px" height="512px" viewBox="0 0 512 512" enable-background="new 0 0 512 512" xml:space="preserve">
<g>
	<g id="XMLID_1_">
		<g>
			<path fill="#EB5352" d="M256,89c92.08,0,167,74.92,167,167s-74.92,167-167,167S89,348.08,89,256S163.92,89,256,89z M377.83,256
				c0-5.52-4.48-10-10-10H144.17c-5.53,0-10,4.48-10,10c0,5.52,4.47,10,10,10h223.66C373.35,266,377.83,261.519,377.83,256z"/>
			<path fill="#203C68" d="M256,69c103.11,0,187,83.89,187,187c0,103.11-83.89,187-187,187c-103.11,0-187-83.89-187-187
				C69,152.89,152.89,69,256,69z M423,256c0-92.08-74.92-167-167-167S89,163.92,89,256s74.92,167,167,167S423,348.08,423,256z"/>
			<path fill="#203C68" d="M367.83,246c5.52,0,10,4.48,10,10c0,5.52-4.48,10-10,10H144.17c-5.53,0-10-4.48-10-10
				c0-5.52,4.47-10,10-10H367.83z"/>
		</g>
		<g>
		</g>
	</g>
</g>
</svg>
