<?xml version="1.0" encoding="UTF-8" standalone="no"?> <svg id="Layer_1" data-name="Layer 1" xmlns="http://www.w3.org/2000/svg" viewBox="0 0 24 24"><title>star</title><path d="M17.18,21.72a1.63,1.63,0,0,1-.76-.19L12,19.2,7.58,21.53a1.63,1.63,0,0,1-2.36-1.71l.84-4.92L2.49,11.41a1.63,1.63,0,0,1,.9-2.77l4.94-.72,2.21-4.48a1.63,1.63,0,0,1,2.92,0h0l2.21,4.48,4.94.72a1.63,1.63,0,0,1,.9,2.77l-3.58,3.49.84,4.92a1.63,1.63,0,0,1-1.6,1.9ZM4.43,10.51,7.6,13.6A1.62,1.62,0,0,1,8.07,15L7.32,19.4l3.92-2.06a1.62,1.62,0,0,1,1.51,0l3.92,2.06L15.93,15a1.63,1.63,0,0,1,.47-1.44l3.17-3.09-4.38-.64A1.62,1.62,0,0,1,14,9L12,5,10,9a1.62,1.62,0,0,1-1.23.89ZM15.75,8.09h0Z"/></svg>